# xmcd CD database file
#
# Track frame offsets:
#	182
#	15805
#	40980
#	57390
#	74262
#	93570
#	114592
#	132380
#	149292
#	180017
#
# Disc length: 2631 seconds
#
# Revision: 5
# Processed by: cddbd v1.5.2PL0 Copyright (c) Steve Scherf et al.
# Submitted via: CDex 1.51
#
DISCID=810a450a
DTITLE=משינה - שיא הרגש
DYEAR=1993
DGENRE=ישראלי
TTITLE0=פחי שואו
TTITLE1=דני
TTITLE2=המתאגרף
TTITLE3=ג'וני האדום
TTITLE4=גברת שרה השכנה
TTITLE5=מה אני עושה למעני
TTITLE6=הנחש
TTITLE7=נובל
TTITLE8=כולם אומרים לי תזהר
TTITLE9=נגעה בשמים
EXTD=Real song names.... YEAR: 1993
EXTT0=
EXTT1=
EXTT2=
EXTT3=
EXTT4=
EXTT5=
EXTT6=
EXTT7=
EXTT8=
EXTT9=
PLAYORDER=
